<svg width="225" height="283" viewBox="0 0 225 283" fill="none" xmlns="http://www.w3.org/2000/svg">
<rect width="225" height="283" fill="white"/>
<rect x="0.5" y="-0.5" width="123" height="13" transform="matrix(1 0 0 -1 32 30)" fill="black" stroke="black"/>
<circle cx="142" cy="144" r="21.5" fill="black" stroke="black"/>
<circle cx="60" cy="243" r="22" fill="black"/>
<path d="M133.536 124.068L126.365 106.473L113.613 110.175L133.803 96.1234L109.543 100.187L129.732 86.1345L105.726 90.8221L125.662 76.1457L101.655 80.8332L121.845 66.7811L97.33 70.22L108.816 63.4113L95.2299 30.0735" stroke="black"/>
<path d="M70.2971 231.409L82.194 216.595L72.7633 207.246L94.8531 218.069L79.5173 198.836L101.607 209.659L85.8492 190.952L108.361 201.248L92.6032 182.541L114.693 193.364L99.7794 173.605L111.31 180.338L133.852 152.269" stroke="black"/>
<mask id="path-6-outside-1_2_155" maskUnits="userSpaceOnUse" x="95" y="30" width="21" height="20" fill="black">
<rect fill="white" x="95" y="30" width="21" height="20"/>
<path d="M103.568 48.5587C106.956 47.1203 109.851 44.6807 111.886 41.5494C113.922 38.4182 115.005 34.7365 115 30.9717L96.5 31L103.568 48.5587Z"/>
</mask>
<path d="M103.568 48.5587C106.956 47.1203 109.851 44.6807 111.886 41.5494C113.922 38.4182 115.005 34.7365 115 30.9717L96.5 31L103.568 48.5587Z" stroke="black" stroke-width="1.6" mask="url(#path-6-outside-1_2_155)"/>
<mask id="path-7-outside-2_2_155" maskUnits="userSpaceOnUse" x="119" y="141" width="60" height="38" fill="black">
<rect fill="white" x="119" y="141" width="60" height="38"/>
<path d="M120.379 170.266C125.635 174.453 131.972 177.062 138.652 177.791C145.332 178.519 152.082 177.337 158.117 174.381C164.151 171.425 169.223 166.816 172.742 161.092C176.262 155.367 178.084 148.761 177.997 142.042L142.5 142.5L120.379 170.266Z"/>
</mask>
<path d="M120.379 170.266C125.635 174.453 131.972 177.062 138.652 177.791C145.332 178.519 152.082 177.337 158.117 174.381C164.151 171.425 169.223 166.816 172.742 161.092C176.262 155.367 178.084 148.761 177.997 142.042L142.5 142.5L120.379 170.266Z" stroke="black" stroke-width="1.6" mask="url(#path-7-outside-2_2_155)"/>
<path d="M173.444 178.715C173.444 177.337 173.012 176 171.904 176C170.013 176 168 179.958 168 182.93C168 183.552 168.135 185.646 169.554 185.646C171.391 185.646 173.444 181.782 173.444 178.715ZM169.351 180.62C169.554 179.823 169.837 178.688 170.378 177.729C170.823 176.919 171.296 176.27 171.891 176.27C172.336 176.27 172.634 176.648 172.634 177.945C172.634 178.432 172.593 179.107 172.201 180.62H169.351ZM172.107 181.025C171.769 182.349 171.485 183.2 170.999 184.052C170.607 184.741 170.134 185.375 169.567 185.375C169.148 185.375 168.811 185.051 168.811 183.714C168.811 182.836 169.027 181.917 169.243 181.025H172.107Z" fill="black"/>
<path d="M176.452 181.8C176.452 181.557 176.434 181.548 176.191 181.548C175.821 181.908 175.344 182.124 174.489 182.124V182.421C174.732 182.421 175.218 182.421 175.74 182.178V186.798C175.74 187.132 175.713 187.24 174.858 187.24H174.543V187.537C174.912 187.51 175.686 187.51 176.092 187.51C176.497 187.51 177.28 187.51 177.65 187.537V187.24H177.335C176.479 187.24 176.452 187.132 176.452 186.798V181.8Z" fill="black"/>
<path d="M53 31L52.4077 36.743L57.6775 34.3844L53 31ZM88.0823 109.383L88.6746 103.64L83.4048 105.999L88.0823 109.383ZM54.382 35.3116L85.7876 105.48L86.7004 105.071L55.2947 34.9031L54.382 35.3116Z" fill="black"/>
<path d="M103 142L97.5407 143.879L101.897 147.667L103 142ZM63 188L68.4593 186.121L64.1025 182.333L63 188ZM99.6699 145.068L65.5755 184.276L66.3301 184.932L100.424 145.724L99.6699 145.068Z" fill="black"/>
<path d="M63 188L57.5027 189.764L61.7792 193.643L63 188ZM24 231L29.4973 229.236L25.2208 225.357L24 231ZM59.6065 190.997L26.6528 227.331L27.3935 228.003L60.3472 191.669L59.6065 190.997Z" fill="black"/>
<path d="M87.8069 109.076L87.2808 114.826L92.5231 112.407L87.8069 109.076ZM103 142L103.526 136.251L98.2839 138.67L103 142ZM89.2384 113.372L100.66 138.124L101.568 137.705L90.1464 112.953L89.2384 113.372Z" fill="black"/>
<line x1="83" y1="141.5" x2="209" y2="141.5" stroke="black" stroke-dasharray="2 2"/>
<path d="M69.8099 151.338C69.8235 151.284 69.8505 151.203 69.8505 151.135C69.8505 151 69.7154 151 69.6884 151C69.6748 151 69.1885 151.041 68.9453 151.068C68.7157 151.081 68.513 151.108 68.2699 151.122C67.9457 151.149 67.8511 151.162 67.8511 151.405C67.8511 151.54 67.9862 151.54 68.1213 151.54C68.8103 151.54 68.8103 151.662 68.8103 151.797C68.8103 151.851 68.8103 151.878 68.7427 152.121L67.0675 158.822C67.027 158.971 67 159.079 67 159.295C67 159.97 67.4998 160.511 68.1888 160.511C68.6346 160.511 68.9318 160.213 69.148 159.795C69.3776 159.349 69.5668 158.498 69.5668 158.444C69.5668 158.376 69.5127 158.322 69.4317 158.322C69.3101 158.322 69.2966 158.39 69.2426 158.592C68.9994 159.524 68.7562 160.24 68.2158 160.24C67.8106 160.24 67.8106 159.808 67.8106 159.619C67.8106 159.565 67.8106 159.281 67.9051 158.903L69.8099 151.338Z" fill="black"/>
<path d="M73.1467 156.665C73.1467 156.422 73.1287 156.413 72.8855 156.413C72.5163 156.773 72.039 156.989 71.1834 156.989V157.286C71.4265 157.286 71.9129 157.286 72.4352 157.043V161.663C72.4352 161.997 72.4082 162.105 71.5526 162.105H71.2374V162.402C71.6067 162.375 72.3812 162.375 72.7865 162.375C73.1918 162.375 73.9753 162.375 74.3445 162.402V162.105H74.0293C73.1737 162.105 73.1467 161.997 73.1467 161.663V156.665Z" fill="black"/>
<path d="M31.8904 196.432C31.4716 196.513 31.2554 196.811 31.2554 197.108C31.2554 197.432 31.5121 197.54 31.7012 197.54C32.0795 197.54 32.3902 197.216 32.3902 196.811C32.3902 196.378 31.9714 196 31.296 196C30.7556 196 30.1342 196.243 29.5668 197.067C29.4722 196.351 28.9318 196 28.3915 196C27.8646 196 27.5944 196.405 27.4323 196.702C27.2026 197.189 27 197.999 27 198.067C27 198.121 27.054 198.189 27.1486 198.189C27.2567 198.189 27.2702 198.175 27.3512 197.864C27.5539 197.054 27.8106 196.27 28.3509 196.27C28.6752 196.27 28.7697 196.5 28.7697 196.892C28.7697 197.189 28.6346 197.716 28.5401 198.134L28.1618 199.593C28.1078 199.85 27.9592 200.458 27.8916 200.701C27.797 201.052 27.6484 201.687 27.6484 201.755C27.6484 201.944 27.797 202.093 27.9997 202.093C28.1483 202.093 28.405 201.998 28.486 201.728C28.5266 201.62 29.0264 199.58 29.1075 199.269C29.175 198.972 29.2561 198.688 29.3236 198.391C29.3776 198.202 29.4317 197.986 29.4722 197.81C29.5127 197.689 29.8775 197.027 30.2152 196.73C30.3773 196.581 30.7286 196.27 31.2825 196.27C31.4986 196.27 31.7148 196.311 31.8904 196.432Z" fill="black"/>
<path d="M35.4243 198.247C35.4243 198.004 35.4063 197.995 35.1631 197.995C34.7939 198.355 34.3165 198.571 33.4609 198.571V198.868C33.7041 198.868 34.1904 198.868 34.7128 198.625V203.245C34.7128 203.579 34.6858 203.687 33.8302 203.687H33.515V203.984C33.8842 203.957 34.6588 203.957 35.064 203.957C35.4693 203.957 36.2529 203.957 36.6221 203.984V203.687H36.3069C35.4513 203.687 35.4243 203.579 35.4243 203.245V198.247Z" fill="black"/>
<path d="M115.053 204.338C115.067 204.284 115.094 204.203 115.094 204.135C115.094 204 114.959 204 114.932 204C114.918 204 114.432 204.041 114.189 204.068C113.959 204.081 113.756 204.108 113.513 204.122C113.189 204.149 113.094 204.162 113.094 204.405C113.094 204.54 113.229 204.54 113.364 204.54C114.053 204.54 114.053 204.662 114.053 204.797C114.053 204.851 114.053 204.878 113.986 205.121L112.054 212.849C112 213.051 112 213.078 112 213.159C112 213.457 112.23 213.511 112.365 213.511C112.743 213.511 112.824 213.213 112.932 212.795L113.567 210.268C114.54 210.376 115.121 210.782 115.121 211.43C115.121 211.511 115.121 211.565 115.08 211.768C115.026 211.971 115.026 212.133 115.026 212.2C115.026 212.984 115.539 213.511 116.228 213.511C116.85 213.511 117.174 212.943 117.282 212.754C117.566 212.254 117.741 211.498 117.741 211.444C117.741 211.376 117.687 211.322 117.606 211.322C117.485 211.322 117.471 211.376 117.417 211.592C117.228 212.295 116.944 213.24 116.255 213.24C115.985 213.24 115.81 213.105 115.81 212.592C115.81 212.335 115.864 212.038 115.918 211.835C115.972 211.592 115.972 211.579 115.972 211.417C115.972 210.62 115.256 210.174 114.013 210.012C114.499 209.714 114.986 209.188 115.175 208.985C115.945 208.12 116.472 207.688 117.093 207.688C117.404 207.688 117.485 207.769 117.579 207.85C117.08 207.904 116.89 208.255 116.89 208.526C116.89 208.85 117.147 208.958 117.336 208.958C117.701 208.958 118.025 208.647 118.025 208.215C118.025 207.823 117.714 207.418 117.107 207.418C116.364 207.418 115.756 207.945 114.796 209.025C114.661 209.188 114.161 209.701 113.662 209.89L115.053 204.338Z" fill="black"/>
<path d="M120.965 209.665C120.965 209.422 120.947 209.413 120.703 209.413C120.334 209.773 119.857 209.989 119.001 209.989V210.286C119.244 210.286 119.731 210.286 120.253 210.043V214.663C120.253 214.997 120.226 215.105 119.371 215.105H119.055V215.402C119.425 215.375 120.199 215.375 120.604 215.375C121.01 215.375 121.793 215.375 122.162 215.402V215.105H121.847C120.992 215.105 120.965 214.997 120.965 214.663V209.665Z" fill="black"/>
<path d="M25.4182 262.999C25.4452 262.918 25.7829 262.243 26.2828 261.811C26.634 261.486 27.0933 261.27 27.6202 261.27C28.1606 261.27 28.3497 261.675 28.3497 262.216C28.3497 262.297 28.3497 262.567 28.1876 263.202L27.8499 264.593C27.7418 264.999 27.4851 265.998 27.4581 266.147C27.404 266.35 27.323 266.701 27.323 266.755C27.323 266.944 27.4716 267.093 27.6742 267.093C28.0795 267.093 28.1471 266.782 28.2686 266.296L29.0792 263.067C29.1062 262.959 29.8087 261.27 31.2947 261.27C31.8351 261.27 32.0242 261.675 32.0242 262.216C32.0242 262.972 31.4974 264.445 31.2002 265.255C31.0786 265.58 31.011 265.755 31.011 265.998C31.011 266.606 31.4298 267.093 32.0783 267.093C33.3346 267.093 33.8075 265.107 33.8075 265.026C33.8075 264.958 33.7534 264.904 33.6724 264.904C33.5508 264.904 33.5373 264.945 33.4697 265.174C33.159 266.255 32.6592 266.823 32.1188 266.823C31.9837 266.823 31.7676 266.809 31.7676 266.377C31.7676 266.025 31.9297 265.593 31.9837 265.445C32.2269 264.796 32.8348 263.202 32.8348 262.418C32.8348 261.608 32.362 261 31.3353 261C30.4301 261 29.7006 261.513 29.1603 262.31C29.1197 261.581 28.6739 261 27.6607 261C26.4584 261 25.8235 261.851 25.5803 262.189C25.5398 261.419 24.9859 261 24.3915 261C23.9997 261 23.689 261.189 23.4323 261.702C23.1891 262.189 23 263.013 23 263.067C23 263.121 23.054 263.189 23.1486 263.189C23.2567 263.189 23.2702 263.175 23.3512 262.864C23.5539 262.067 23.8106 261.27 24.3509 261.27C24.6616 261.27 24.7697 261.486 24.7697 261.892C24.7697 262.189 24.6346 262.716 24.5401 263.134L24.1618 264.593C24.1078 264.85 23.9592 265.458 23.8916 265.701C23.797 266.052 23.6484 266.687 23.6484 266.755C23.6484 266.944 23.797 267.093 23.9997 267.093C24.1618 267.093 24.3509 267.012 24.459 266.809C24.486 266.741 24.6076 266.269 24.6752 265.998L24.9724 264.783L25.4182 262.999Z" fill="black"/>
<path d="M37.0336 263.247C37.0336 263.004 37.0156 262.995 36.7724 262.995C36.4031 263.355 35.9258 263.571 35.0702 263.571V263.868C35.3134 263.868 35.7997 263.868 36.3221 263.625V268.245C36.3221 268.579 36.2951 268.687 35.4395 268.687H35.1243V268.984C35.4935 268.957 36.268 268.957 36.6733 268.957C37.0786 268.957 37.8622 268.957 38.2314 268.984V268.687H37.9162C37.0606 268.687 37.0336 268.579 37.0336 268.245V263.247Z" fill="black"/>
<path d="M91.0666 256.415C91.0666 256.374 91.0666 256.347 90.837 256.118C89.486 254.753 88.7295 252.524 88.7295 249.768C88.7295 247.147 89.3644 244.891 90.9315 243.297C91.0666 243.176 91.0666 243.149 91.0666 243.108C91.0666 243.027 90.9991 243 90.945 243C90.7694 243 89.6616 243.973 88.9997 245.297C88.3107 246.661 88 248.107 88 249.768C88 250.971 88.1891 252.578 88.8916 254.024C89.6887 255.645 90.7964 256.523 90.945 256.523C90.9991 256.523 91.0666 256.496 91.0666 256.415Z" fill="black"/>
<path d="M98.2236 247.62C97.7913 247.701 97.6292 248.025 97.6292 248.282C97.6292 248.606 97.8859 248.714 98.075 248.714C98.4803 248.714 98.764 248.363 98.764 247.998C98.764 247.431 98.1156 247.174 97.5482 247.174C96.7241 247.174 96.2648 247.985 96.1432 248.242C95.8325 247.228 94.9949 247.174 94.7517 247.174C93.3738 247.174 92.6443 248.944 92.6443 249.241C92.6443 249.295 92.6983 249.363 92.7929 249.363C92.901 249.363 92.928 249.282 92.955 249.228C93.4143 247.728 94.3194 247.445 94.7112 247.445C95.3191 247.445 95.4407 248.012 95.4407 248.336C95.4407 248.633 95.3597 248.944 95.1975 249.593L94.7382 251.443C94.5356 252.254 94.1438 252.997 93.4278 252.997C93.3603 252.997 93.0225 252.997 92.7388 252.821C93.2252 252.727 93.3333 252.321 93.3333 252.159C93.3333 251.889 93.1306 251.727 92.8739 251.727C92.5497 251.727 92.1985 252.011 92.1985 252.443C92.1985 253.01 92.8334 253.267 93.4143 253.267C94.0628 253.267 94.5221 252.754 94.8058 252.2C95.0219 252.997 95.6974 253.267 96.1972 253.267C97.5752 253.267 98.3047 251.497 98.3047 251.2C98.3047 251.133 98.2507 251.079 98.1696 251.079C98.048 251.079 98.0345 251.146 97.994 251.254C97.6292 252.443 96.8457 252.997 96.2378 252.997C95.7649 252.997 95.5083 252.646 95.5083 252.092C95.5083 251.795 95.5623 251.578 95.7784 250.687L96.2513 248.85C96.4539 248.039 96.9132 247.445 97.5347 247.445C97.5617 247.445 97.9399 247.445 98.2236 247.62Z" fill="black"/>
<path d="M102.165 249.421C102.165 249.178 102.147 249.169 101.904 249.169C101.535 249.53 101.057 249.746 100.202 249.746V250.043C100.445 250.043 100.931 250.043 101.454 249.8V254.42C101.454 254.753 101.427 254.861 100.571 254.861H100.256V255.158C100.625 255.131 101.399 255.131 101.805 255.131C102.21 255.131 102.994 255.131 103.363 255.158V254.861H103.048C102.192 254.861 102.165 254.753 102.165 254.42V249.421Z" fill="black"/>
<path d="M107.319 253.186C107.319 252.403 107.062 251.822 106.508 251.822C106.076 251.822 105.86 252.173 105.86 252.47C105.86 252.767 106.063 253.132 106.522 253.132C106.697 253.132 106.846 253.078 106.968 252.956C106.995 252.929 107.008 252.929 107.022 252.929C107.049 252.929 107.049 253.118 107.049 253.186C107.049 253.632 106.968 254.51 106.184 255.388C106.036 255.55 106.036 255.577 106.036 255.604C106.036 255.672 106.103 255.739 106.171 255.739C106.279 255.739 107.319 254.74 107.319 253.186Z" fill="black"/>
<path d="M114.163 254.645C113.799 255.158 113.272 255.618 112.61 255.618C112.448 255.618 111.799 255.591 111.597 254.969C111.637 254.983 111.705 254.983 111.732 254.983C112.137 254.983 112.407 254.632 112.407 254.321C112.407 254.01 112.151 253.902 111.948 253.902C111.732 253.902 111.259 254.064 111.259 254.726C111.259 255.415 111.84 255.888 112.61 255.888C113.961 255.888 115.325 254.645 115.704 253.146L117.027 247.877C117.041 247.809 117.068 247.728 117.068 247.647C117.068 247.445 116.906 247.309 116.703 247.309C116.582 247.309 116.298 247.364 116.19 247.769L115.19 251.741C115.123 251.984 115.123 252.011 115.015 252.159C114.744 252.538 114.299 252.997 113.65 252.997C112.894 252.997 112.826 252.254 112.826 251.889C112.826 251.119 113.191 250.079 113.556 249.106C113.704 248.714 113.785 248.525 113.785 248.255C113.785 247.688 113.38 247.174 112.718 247.174C111.475 247.174 110.975 249.133 110.975 249.241C110.975 249.295 111.029 249.363 111.124 249.363C111.245 249.363 111.259 249.309 111.313 249.12C111.637 247.985 112.151 247.445 112.677 247.445C112.799 247.445 113.029 247.445 113.029 247.89C113.029 248.242 112.88 248.633 112.677 249.147C112.015 250.916 112.015 251.362 112.015 251.687C112.015 252.97 112.934 253.267 113.61 253.267C114.001 253.267 114.488 253.146 114.96 252.646L114.974 252.659C114.771 253.456 114.636 253.983 114.163 254.645Z" fill="black"/>
<path d="M119.888 249.421C119.888 249.178 119.87 249.169 119.627 249.169C119.258 249.53 118.78 249.746 117.925 249.746V250.043C118.168 250.043 118.654 250.043 119.177 249.8V254.42C119.177 254.753 119.15 254.861 118.294 254.861H117.979V255.158C118.348 255.131 119.123 255.131 119.528 255.131C119.933 255.131 120.717 255.131 121.086 255.158V254.861H120.771C119.915 254.861 119.888 254.753 119.888 254.42V249.421Z" fill="black"/>
<path d="M126.217 249.768C126.217 248.741 126.082 247.066 125.326 245.499C124.529 243.878 123.421 243 123.272 243C123.218 243 123.151 243.027 123.151 243.108C123.151 243.149 123.151 243.176 123.38 243.405C124.731 244.77 125.488 246.999 125.488 249.755C125.488 252.375 124.853 254.632 123.286 256.226C123.151 256.347 123.151 256.374 123.151 256.415C123.151 256.496 123.218 256.523 123.272 256.523C123.448 256.523 124.556 255.55 125.218 254.226C125.907 252.848 126.217 251.389 126.217 249.768Z" fill="black"/>
<path d="M128.444 43.7154C128.444 42.3374 128.012 41 126.904 41C125.013 41 123 44.9582 123 47.9303C123 48.5517 123.135 50.6457 124.554 50.6457C126.391 50.6457 128.444 46.782 128.444 43.7154ZM124.351 45.6202C124.554 44.8231 124.837 43.6884 125.378 42.7292C125.823 41.9186 126.296 41.2702 126.891 41.2702C127.336 41.2702 127.634 41.6484 127.634 42.9453C127.634 43.4317 127.593 44.1071 127.201 45.6202H124.351ZM127.107 46.0255C126.769 47.3494 126.485 48.2005 125.999 49.0516C125.607 49.7405 125.134 50.3755 124.567 50.3755C124.148 50.3755 123.811 50.0513 123.811 48.7138C123.811 47.8357 124.027 46.9171 124.243 46.0255H127.107Z" fill="black"/>
<path d="M133.028 49.664C133.028 48.7003 132.929 48.1149 132.632 47.5385C132.235 46.746 131.506 46.5478 131.011 46.5478C129.876 46.5478 129.462 47.3944 129.335 47.6466C129.011 48.304 128.993 49.1957 128.993 49.664C128.993 50.2584 129.02 51.168 129.453 51.8885C129.867 52.555 130.533 52.7261 131.011 52.7261C131.443 52.7261 132.217 52.591 132.668 51.6994C133.001 51.0509 133.028 50.2494 133.028 49.664ZM131.011 52.4739C130.704 52.4739 130.083 52.3298 129.894 51.3842C129.795 50.8708 129.795 50.0242 129.795 49.5559C129.795 48.9345 129.795 48.304 129.894 47.8087C130.083 46.8901 130.785 46.8 131.011 46.8C131.317 46.8 131.938 46.9531 132.118 47.7727C132.226 48.268 132.226 48.9435 132.226 49.5559C132.226 50.0873 132.226 50.8978 132.118 51.4022C131.929 52.3478 131.308 52.4739 131.011 52.4739Z" fill="black"/>
<path d="M51.8099 72.3377C51.8235 72.2837 51.8505 72.2026 51.8505 72.1351C51.8505 72 51.7154 72 51.6884 72C51.6748 72 51.1885 72.0405 50.9453 72.0675C50.7157 72.0811 50.513 72.1081 50.2699 72.1216C49.9457 72.1486 49.8511 72.1621 49.8511 72.4053C49.8511 72.5404 49.9862 72.5404 50.1213 72.5404C50.8103 72.5404 50.8103 72.662 50.8103 72.7971C50.8103 72.8511 50.8103 72.8781 50.7427 73.1213L49.0675 79.8219C49.027 79.9705 49 80.0786 49 80.2947C49 80.9702 49.4998 81.5106 50.1888 81.5106C50.6346 81.5106 50.9318 81.2134 51.148 80.7946C51.3776 80.3488 51.5668 79.4977 51.5668 79.4436C51.5668 79.3761 51.5127 79.3221 51.4317 79.3221C51.3101 79.3221 51.2966 79.3896 51.2426 79.5922C50.9994 80.5244 50.7562 81.2404 50.2158 81.2404C49.8106 81.2404 49.8106 80.8081 49.8106 80.619C49.8106 80.5649 49.8106 80.2812 49.9051 79.903L51.8099 72.3377Z" fill="black"/>
<path d="M56.7228 80.5289C56.7228 79.5652 56.6237 78.9798 56.3265 78.4034C55.9303 77.6109 55.2008 77.4127 54.7054 77.4127C53.5706 77.4127 53.1563 78.2593 53.0303 78.5115C52.706 79.1689 52.688 80.0606 52.688 80.5289C52.688 81.1233 52.715 82.0329 53.1473 82.7534C53.5616 83.4199 54.2281 83.591 54.7054 83.591C55.1377 83.591 55.9122 83.4559 56.3626 82.5643C56.6958 81.9158 56.7228 81.1143 56.7228 80.5289ZM54.7054 83.3388C54.3992 83.3388 53.7778 83.1947 53.5886 82.2491C53.4896 81.7357 53.4896 80.8891 53.4896 80.4208C53.4896 79.7994 53.4896 79.1689 53.5886 78.6736C53.7778 77.755 54.4803 77.6649 54.7054 77.6649C55.0116 77.6649 55.6331 77.818 55.8132 78.6376C55.9213 79.1329 55.9213 79.8084 55.9213 80.4208C55.9213 80.9522 55.9213 81.7627 55.8132 82.2671C55.624 83.2127 55.0026 83.3388 54.7054 83.3388Z" fill="black"/>
<path d="M69.8904 125.432C69.4716 125.513 69.2554 125.811 69.2554 126.108C69.2554 126.432 69.5121 126.54 69.7012 126.54C70.0795 126.54 70.3902 126.216 70.3902 125.811C70.3902 125.378 69.9714 125 69.296 125C68.7556 125 68.1342 125.243 67.5668 126.067C67.4722 125.351 66.9318 125 66.3915 125C65.8646 125 65.5944 125.405 65.4323 125.702C65.2026 126.189 65 126.999 65 127.067C65 127.121 65.054 127.189 65.1486 127.189C65.2567 127.189 65.2702 127.175 65.3512 126.864C65.5539 126.054 65.8106 125.27 66.3509 125.27C66.6752 125.27 66.7697 125.5 66.7697 125.892C66.7697 126.189 66.6346 126.716 66.5401 127.134L66.1618 128.593C66.1078 128.85 65.9592 129.458 65.8916 129.701C65.797 130.052 65.6484 130.687 65.6484 130.755C65.6484 130.944 65.797 131.093 65.9997 131.093C66.1483 131.093 66.405 130.998 66.486 130.728C66.5266 130.62 67.0264 128.58 67.1075 128.269C67.175 127.972 67.2561 127.688 67.3236 127.391C67.3776 127.202 67.4317 126.986 67.4722 126.81C67.5127 126.689 67.8775 126.027 68.2152 125.73C68.3773 125.581 68.7286 125.27 69.2825 125.27C69.4986 125.27 69.7148 125.311 69.8904 125.432Z" fill="black"/>
<path d="M75.0004 130.111C75.0004 129.147 74.9013 128.562 74.6041 127.986C74.2078 127.193 73.4783 126.995 72.983 126.995C71.8482 126.995 71.4339 127.841 71.3078 128.094C70.9836 128.751 70.9656 129.643 70.9656 130.111C70.9656 130.705 70.9926 131.615 71.4249 132.336C71.8392 133.002 72.5057 133.173 72.983 133.173C73.4153 133.173 74.1898 133.038 74.6401 132.146C74.9734 131.498 75.0004 130.696 75.0004 130.111ZM72.983 132.921C72.6768 132.921 72.0554 132.777 71.8662 131.831C71.7672 131.318 71.7672 130.471 71.7672 130.003C71.7672 129.382 71.7672 128.751 71.8662 128.256C72.0554 127.337 72.7578 127.247 72.983 127.247C73.2892 127.247 73.9106 127.4 74.0908 128.22C74.1988 128.715 74.1988 129.391 74.1988 130.003C74.1988 130.534 74.1988 131.345 74.0908 131.849C73.9016 132.795 73.2802 132.921 72.983 132.921Z" fill="black"/>
<path d="M142.053 72.3377C142.067 72.2837 142.094 72.2026 142.094 72.1351C142.094 72 141.959 72 141.932 72C141.918 72 141.432 72.0405 141.189 72.0675C140.959 72.0811 140.756 72.1081 140.513 72.1216C140.189 72.1486 140.094 72.1621 140.094 72.4053C140.094 72.5404 140.229 72.5404 140.364 72.5404C141.053 72.5404 141.053 72.662 141.053 72.7971C141.053 72.8511 141.053 72.8781 140.986 73.1213L139.054 80.8486C139 81.0513 139 81.0783 139 81.1593C139 81.4565 139.23 81.5106 139.365 81.5106C139.743 81.5106 139.824 81.2134 139.932 80.7946L140.567 78.2683C141.54 78.3764 142.121 78.7817 142.121 79.4301C142.121 79.5112 142.121 79.5652 142.08 79.7679C142.026 79.9705 142.026 80.1326 142.026 80.2002C142.026 80.9837 142.539 81.5106 143.228 81.5106C143.85 81.5106 144.174 80.9432 144.282 80.7541C144.566 80.2542 144.741 79.4977 144.741 79.4436C144.741 79.3761 144.687 79.3221 144.606 79.3221C144.485 79.3221 144.471 79.3761 144.417 79.5922C144.228 80.2947 143.944 81.2404 143.255 81.2404C142.985 81.2404 142.81 81.1053 142.81 80.5919C142.81 80.3353 142.864 80.0381 142.918 79.8354C142.972 79.5922 142.972 79.5787 142.972 79.4166C142.972 78.6196 142.256 78.1738 141.013 78.0117C141.499 77.7145 141.986 77.1876 142.175 76.9849C142.945 76.1203 143.472 75.6881 144.093 75.6881C144.404 75.6881 144.485 75.7691 144.579 75.8502C144.08 75.9042 143.89 76.2554 143.89 76.5256C143.89 76.8499 144.147 76.9579 144.336 76.9579C144.701 76.9579 145.025 76.6472 145.025 76.2149C145.025 75.8231 144.714 75.4179 144.107 75.4179C143.364 75.4179 142.756 75.9447 141.796 77.0255C141.661 77.1876 141.161 77.7009 140.662 77.8901L142.053 72.3377Z" fill="black"/>
<path d="M149.541 80.5289C149.541 79.5652 149.442 78.9798 149.144 78.4034C148.748 77.6109 148.019 77.4127 147.523 77.4127C146.389 77.4127 145.974 78.2593 145.848 78.5115C145.524 79.1689 145.506 80.0606 145.506 80.5289C145.506 81.1233 145.533 82.0329 145.965 82.7534C146.38 83.4199 147.046 83.591 147.523 83.591C147.956 83.591 148.73 83.4559 149.18 82.5643C149.514 81.9158 149.541 81.1143 149.541 80.5289ZM147.523 83.3388C147.217 83.3388 146.596 83.1947 146.407 82.2491C146.307 81.7357 146.307 80.8891 146.307 80.4208C146.307 79.7994 146.307 79.1689 146.407 78.6736C146.596 77.755 147.298 77.6649 147.523 77.6649C147.83 77.6649 148.451 77.818 148.631 78.6376C148.739 79.1329 148.739 79.8084 148.739 80.4208C148.739 80.9522 148.739 81.7627 148.631 82.2671C148.442 83.2127 147.821 83.3388 147.523 83.3388Z" fill="black"/>
<path d="M146.418 108.999C146.445 108.918 146.783 108.243 147.283 107.811C147.634 107.486 148.093 107.27 148.62 107.27C149.161 107.27 149.35 107.675 149.35 108.216C149.35 108.297 149.35 108.567 149.188 109.202L148.85 110.593C148.742 110.999 148.485 111.998 148.458 112.147C148.404 112.35 148.323 112.701 148.323 112.755C148.323 112.944 148.472 113.093 148.674 113.093C149.08 113.093 149.147 112.782 149.269 112.296L150.079 109.067C150.106 108.959 150.809 107.27 152.295 107.27C152.835 107.27 153.024 107.675 153.024 108.216C153.024 108.972 152.497 110.445 152.2 111.255C152.079 111.58 152.011 111.755 152.011 111.998C152.011 112.606 152.43 113.093 153.078 113.093C154.335 113.093 154.807 111.107 154.807 111.026C154.807 110.958 154.753 110.904 154.672 110.904C154.551 110.904 154.537 110.945 154.47 111.174C154.159 112.255 153.659 112.823 153.119 112.823C152.984 112.823 152.768 112.809 152.768 112.377C152.768 112.025 152.93 111.593 152.984 111.445C153.227 110.796 153.835 109.202 153.835 108.418C153.835 107.608 153.362 107 152.335 107C151.43 107 150.701 107.513 150.16 108.31C150.12 107.581 149.674 107 148.661 107C147.458 107 146.823 107.851 146.58 108.189C146.54 107.419 145.986 107 145.391 107C145 107 144.689 107.189 144.432 107.702C144.189 108.189 144 109.013 144 109.067C144 109.121 144.054 109.189 144.149 109.189C144.257 109.189 144.27 109.175 144.351 108.864C144.554 108.067 144.811 107.27 145.351 107.27C145.662 107.27 145.77 107.486 145.77 107.892C145.77 108.189 145.635 108.716 145.54 109.134L145.162 110.593C145.108 110.85 144.959 111.458 144.892 111.701C144.797 112.052 144.648 112.687 144.648 112.755C144.648 112.944 144.797 113.093 145 113.093C145.162 113.093 145.351 113.012 145.459 112.809C145.486 112.741 145.608 112.269 145.675 111.998L145.972 110.783L146.418 108.999Z" fill="black"/>
<path d="M159.61 112.111C159.61 111.147 159.511 110.562 159.213 109.986C158.817 109.193 158.088 108.995 157.592 108.995C156.457 108.995 156.043 109.841 155.917 110.094C155.593 110.751 155.575 111.643 155.575 112.111C155.575 112.705 155.602 113.615 156.034 114.336C156.448 115.002 157.115 115.173 157.592 115.173C158.025 115.173 158.799 115.038 159.249 114.146C159.583 113.498 159.61 112.696 159.61 112.111ZM157.592 114.921C157.286 114.921 156.665 114.777 156.475 113.831C156.376 113.318 156.376 112.471 156.376 112.003C156.376 111.382 156.376 110.751 156.475 110.256C156.665 109.337 157.367 109.247 157.592 109.247C157.898 109.247 158.52 109.4 158.7 110.22C158.808 110.715 158.808 111.391 158.808 112.003C158.808 112.534 158.808 113.345 158.7 113.849C158.511 114.795 157.889 114.921 157.592 114.921Z" fill="black"/>
<path d="M171.067 133.415C171.067 133.374 171.067 133.347 170.837 133.118C169.486 131.753 168.73 129.524 168.73 126.768C168.73 124.147 169.364 121.891 170.932 120.297C171.067 120.176 171.067 120.149 171.067 120.108C171.067 120.027 170.999 120 170.945 120C170.769 120 169.662 120.973 169 122.297C168.311 123.661 168 125.107 168 126.768C168 127.971 168.189 129.578 168.892 131.024C169.689 132.645 170.796 133.523 170.945 133.523C170.999 133.523 171.067 133.496 171.067 133.415Z" fill="black"/>
<path d="M178.224 124.62C177.791 124.701 177.629 125.025 177.629 125.282C177.629 125.606 177.886 125.714 178.075 125.714C178.48 125.714 178.764 125.363 178.764 124.998C178.764 124.431 178.116 124.174 177.548 124.174C176.724 124.174 176.265 124.985 176.143 125.242C175.832 124.228 174.995 124.174 174.752 124.174C173.374 124.174 172.644 125.944 172.644 126.241C172.644 126.295 172.698 126.363 172.793 126.363C172.901 126.363 172.928 126.282 172.955 126.228C173.414 124.728 174.319 124.445 174.711 124.445C175.319 124.445 175.441 125.012 175.441 125.336C175.441 125.633 175.36 125.944 175.198 126.593L174.738 128.443C174.536 129.254 174.144 129.997 173.428 129.997C173.36 129.997 173.023 129.997 172.739 129.821C173.225 129.727 173.333 129.321 173.333 129.159C173.333 128.889 173.131 128.727 172.874 128.727C172.55 128.727 172.198 129.011 172.198 129.443C172.198 130.01 172.833 130.267 173.414 130.267C174.063 130.267 174.522 129.754 174.806 129.2C175.022 129.997 175.697 130.267 176.197 130.267C177.575 130.267 178.305 128.497 178.305 128.2C178.305 128.133 178.251 128.079 178.17 128.079C178.048 128.079 178.035 128.146 177.994 128.254C177.629 129.443 176.846 129.997 176.238 129.997C175.765 129.997 175.508 129.646 175.508 129.092C175.508 128.795 175.562 128.578 175.778 127.687L176.251 125.85C176.454 125.039 176.913 124.445 177.535 124.445C177.562 124.445 177.94 124.445 178.224 124.62Z" fill="black"/>
<path d="M183.741 129.285C183.741 128.322 183.642 127.736 183.345 127.16C182.949 126.367 182.219 126.169 181.724 126.169C180.589 126.169 180.175 127.016 180.049 127.268C179.724 127.925 179.706 128.817 179.706 129.285C179.706 129.88 179.733 130.789 180.166 131.51C180.58 132.176 181.246 132.348 181.724 132.348C182.156 132.348 182.931 132.212 183.381 131.321C183.714 130.672 183.741 129.871 183.741 129.285ZM181.724 132.095C181.418 132.095 180.796 131.951 180.607 131.006C180.508 130.492 180.508 129.646 180.508 129.177C180.508 128.556 180.508 127.925 180.607 127.43C180.796 126.511 181.499 126.421 181.724 126.421C182.03 126.421 182.651 126.575 182.831 127.394C182.94 127.889 182.94 128.565 182.94 129.177C182.94 129.709 182.94 130.519 182.831 131.024C182.642 131.969 182.021 132.095 181.724 132.095Z" fill="black"/>
<path d="M187.319 130.186C187.319 129.403 187.062 128.822 186.508 128.822C186.076 128.822 185.86 129.173 185.86 129.47C185.86 129.767 186.063 130.132 186.522 130.132C186.697 130.132 186.846 130.078 186.968 129.956C186.995 129.929 187.008 129.929 187.022 129.929C187.049 129.929 187.049 130.118 187.049 130.186C187.049 130.632 186.968 131.51 186.184 132.388C186.036 132.55 186.036 132.577 186.036 132.604C186.036 132.672 186.103 132.739 186.171 132.739C186.279 132.739 187.319 131.74 187.319 130.186Z" fill="black"/>
<path d="M194.163 131.645C193.799 132.158 193.272 132.618 192.61 132.618C192.448 132.618 191.799 132.591 191.597 131.969C191.637 131.983 191.705 131.983 191.732 131.983C192.137 131.983 192.407 131.632 192.407 131.321C192.407 131.01 192.151 130.902 191.948 130.902C191.732 130.902 191.259 131.064 191.259 131.726C191.259 132.415 191.84 132.888 192.61 132.888C193.961 132.888 195.325 131.645 195.704 130.146L197.027 124.877C197.041 124.809 197.068 124.728 197.068 124.647C197.068 124.445 196.906 124.309 196.703 124.309C196.582 124.309 196.298 124.364 196.19 124.769L195.19 128.741C195.123 128.984 195.123 129.011 195.015 129.159C194.744 129.538 194.299 129.997 193.65 129.997C192.894 129.997 192.826 129.254 192.826 128.889C192.826 128.119 193.191 127.079 193.556 126.106C193.704 125.714 193.785 125.525 193.785 125.255C193.785 124.688 193.38 124.174 192.718 124.174C191.475 124.174 190.975 126.133 190.975 126.241C190.975 126.295 191.029 126.363 191.124 126.363C191.245 126.363 191.259 126.309 191.313 126.12C191.637 124.985 192.151 124.445 192.677 124.445C192.799 124.445 193.029 124.445 193.029 124.89C193.029 125.242 192.88 125.633 192.677 126.147C192.015 127.916 192.015 128.362 192.015 128.687C192.015 129.97 192.934 130.267 193.61 130.267C194.001 130.267 194.488 130.146 194.96 129.646L194.974 129.659C194.771 130.456 194.636 130.983 194.163 131.645Z" fill="black"/>
<path d="M201.464 129.285C201.464 128.322 201.365 127.736 201.068 127.16C200.672 126.367 199.942 126.169 199.447 126.169C198.312 126.169 197.898 127.016 197.772 127.268C197.447 127.925 197.429 128.817 197.429 129.285C197.429 129.88 197.456 130.789 197.889 131.51C198.303 132.176 198.97 132.348 199.447 132.348C199.879 132.348 200.654 132.212 201.104 131.321C201.437 130.672 201.464 129.871 201.464 129.285ZM199.447 132.095C199.141 132.095 198.519 131.951 198.33 131.006C198.231 130.492 198.231 129.646 198.231 129.177C198.231 128.556 198.231 127.925 198.33 127.43C198.519 126.511 199.222 126.421 199.447 126.421C199.753 126.421 200.374 126.575 200.555 127.394C200.663 127.889 200.663 128.565 200.663 129.177C200.663 129.709 200.663 130.519 200.555 131.024C200.365 131.969 199.744 132.095 199.447 132.095Z" fill="black"/>
<path d="M206.217 126.768C206.217 125.741 206.082 124.066 205.326 122.499C204.529 120.878 203.421 120 203.272 120C203.218 120 203.151 120.027 203.151 120.108C203.151 120.149 203.151 120.176 203.38 120.405C204.731 121.77 205.488 123.999 205.488 126.755C205.488 129.375 204.853 131.632 203.286 133.226C203.151 133.347 203.151 133.374 203.151 133.415C203.151 133.496 203.218 133.523 203.272 133.523C203.448 133.523 204.556 132.55 205.218 131.226C205.907 129.848 206.217 128.389 206.217 126.768Z" fill="black"/>
<path d="M68.0666 49.4148C68.0666 49.3742 68.0666 49.3472 67.837 49.1176C66.486 47.7531 65.7295 45.5241 65.7295 42.7682C65.7295 40.1474 66.3644 37.8913 67.9315 36.2972C68.0666 36.1756 68.0666 36.1486 68.0666 36.1081C68.0666 36.027 67.9991 36 67.945 36C67.7694 36 66.6616 36.9727 65.9997 38.2966C65.3107 39.661 65 41.1065 65 42.7682C65 43.9705 65.1891 45.5781 65.8916 47.0236C66.6887 48.6447 67.7964 49.5228 67.945 49.5228C67.9991 49.5228 68.0666 49.4958 68.0666 49.4148Z" fill="black"/>
<path d="M74.8724 41.809C74.8724 40.6877 74.8048 39.5935 74.3185 38.5668C73.7646 37.4455 72.7919 37.1483 72.13 37.1483C71.3464 37.1483 70.3873 37.5401 69.8874 38.6613C69.5092 39.5124 69.3741 40.35 69.3741 41.809C69.3741 43.1194 69.4686 44.1056 69.955 45.0648C70.4819 46.0915 71.414 46.4157 72.1165 46.4157C73.2918 46.4157 73.9673 45.7132 74.359 44.9297C74.8454 43.9165 74.8724 42.5926 74.8724 41.809ZM72.1165 46.1455C71.6842 46.1455 70.8061 45.9024 70.5494 44.4298C70.4008 43.6193 70.4008 42.5926 70.4008 41.6469C70.4008 40.5391 70.4008 39.5395 70.6169 38.7424C70.8466 37.8373 71.5356 37.4185 72.1165 37.4185C72.6298 37.4185 73.4134 37.7292 73.6701 38.891C73.8457 39.661 73.8457 40.7283 73.8457 41.6469C73.8457 42.552 73.8457 43.5787 73.6971 44.4028C73.4404 45.8888 72.5893 46.1455 72.1165 46.1455Z" fill="black"/>
<path d="M78.0684 46.186C78.0684 45.4025 77.8117 44.8216 77.2579 44.8216C76.8256 44.8216 76.6094 45.1728 76.6094 45.47C76.6094 45.7672 76.812 46.132 77.2714 46.132C77.447 46.132 77.5956 46.078 77.7172 45.9564C77.7442 45.9294 77.7577 45.9294 77.7712 45.9294C77.7982 45.9294 77.7982 46.1185 77.7982 46.186C77.7982 46.6318 77.7172 47.51 76.9336 48.3881C76.785 48.5502 76.785 48.5772 76.785 48.6042C76.785 48.6718 76.8526 48.7393 76.9201 48.7393C77.0282 48.7393 78.0684 47.7396 78.0684 46.186Z" fill="black"/>
<path d="M87.4122 41.809C87.4122 40.6877 87.3446 39.5935 86.8583 38.5668C86.3044 37.4455 85.3317 37.1483 84.6698 37.1483C83.8862 37.1483 82.9271 37.5401 82.4272 38.6613C82.049 39.5124 81.9139 40.35 81.9139 41.809C81.9139 43.1194 82.0084 44.1056 82.4948 45.0648C83.0216 46.0915 83.9538 46.4157 84.6563 46.4157C85.8316 46.4157 86.5071 45.7132 86.8988 44.9297C87.3852 43.9165 87.4122 42.5926 87.4122 41.809ZM84.6563 46.1455C84.224 46.1455 83.3459 45.9024 83.0892 44.4298C82.9406 43.6193 82.9406 42.5926 82.9406 41.6469C82.9406 40.5391 82.9406 39.5395 83.1567 38.7424C83.3864 37.8373 84.0754 37.4185 84.6563 37.4185C85.1696 37.4185 85.9532 37.7292 86.2098 38.891C86.3855 39.661 86.3855 40.7283 86.3855 41.6469C86.3855 42.552 86.3855 43.5787 86.2369 44.4028C85.9802 45.8888 85.1291 46.1455 84.6563 46.1455Z" fill="black"/>
<path d="M91.7835 42.7682C91.7835 41.7415 91.6484 40.0663 90.8919 38.4992C90.0948 36.8781 88.9871 36 88.8385 36C88.7844 36 88.7169 36.027 88.7169 36.1081C88.7169 36.1486 88.7169 36.1756 88.9465 36.4053C90.2975 37.7697 91.054 39.9988 91.054 42.7547C91.054 45.3755 90.4191 47.6315 88.852 49.2256C88.7169 49.3472 88.7169 49.3742 88.7169 49.4148C88.7169 49.4958 88.7844 49.5228 88.8385 49.5228C89.0141 49.5228 90.1219 48.5502 90.7838 47.2263C91.4728 45.8483 91.7835 44.3893 91.7835 42.7682Z" fill="black"/>
</svg>
